<?xml version="1.0" standalone="no"?><svg data-noselect="" 
  viewBox="149.49999999999997 74.75 502 376.7499961853" 
  width="502" 
  height="376.7499961853" 
  ref="svg_canvas" 
  preserveAspectRatio="none" 
  version="1.1" xmlns="http://www.w3.org/2000/svg" 
  style="background: rgb(245, 233, 207);">
    <defs></defs>
    <g id="shape_2vihui1gf4" class="icon"  ref="shape_2vihui1gf4" key="shape_2vihui1gf4" transform="translate(337.3069916960033,154.75) rotate(0,69.75,69.75) scale(1,1)" style="cursor:move;display:inline;opacity:1;" filter="">
            <g style="display:inline"><rect fill="rgba(0,0,0,0)" width="146.38601660799335" height="159.5" x="-10" y="-10"></rect><svg version="1.1" id="图层_1" xmlns="http://www.w3.org/2000/svg" xmlns:xlink="http://www.w3.org/1999/xlink" x="0px" y="0px" viewBox="0 0 231.3000030517578 255.3000030517578" enable-background="new 0 0 231.4 255.2" xml:space="preserve" width="126.38601660799335" height="139.5" class="style-removed" preserveAspectRatio="none" data-parent="shape_2vihui1gf4">
<g>
	<path fill="#AC7032" d="M194.8,170.4c0,0,0.1-0.1,0.1-0.2c0.1-0.4,0.3-0.8,0.5-1.1c0.1-0.5,0.2-0.8,0.4-0.7
		c-0.1-0.2-0.1-0.4-0.2-0.6c0-0.1,0-0.1,0-0.1l-0.1-0.1c-0.1-0.1-0.2-0.1-0.3-0.2c-0.2-0.1-0.3-0.3-0.5-0.4
		c-0.3-0.2-0.6-0.3-0.9-0.5c-0.2-0.1-0.3-0.2-0.5-0.3c-0.2-0.1-0.3-0.2-0.5-0.3c-0.6-0.3-1.2-0.6-1.9-0.9c-1.4-0.6-2.9-1-4.4-1
		c-0.8-0.4,0.8-0.1,0.3-0.3c-0.5,0-1,0-1.8-0.1c-0.7-0.1-1.5-0.3-2.6-0.5l0.3-0.1c-3.1-0.4-5.4-0.5-7.7-0.6
		c-2.3-0.1-4.7-0.1-8.2,0.2l0.6,0.3c-1.5,0.1-1.8,0-2.5,0c-0.8,0.4,0.2,0.3,1.3,0.1c1-0.1,2.1-0.2,1.4,0.2c-1-0.3-3.6,0.1-6.1,0.3
		c-1.4,0.2-2.6,0.5-3.6,0.7c-1,0.2-1.8,0.3-2.2,0.2c-2.3,0.7,0.8,0.2-1.5,0.9h-0.7c-0.2,0.2-0.3,0.3-0.5,0.5
		c-1.5,0.5-2.3,0.7-2.4,0.5c0.3-0.2,0.9-0.5,1.3-0.7c-1,0.3-2.3,1-3.4,1.6c-0.9,0.6-1.7,1.2-2.1,1.4c0.3-0.2,0.6-0.3,0.9-0.5
		c0.3-0.2,0.7-0.4,1-0.6c-1.3,0.9-2.7,1.8-4.1,2.9c-1.4,1.1-2.7,2.3-4,3.4c-0.6,0.6-1.2,1.2-1.8,1.8c-0.7,0.6-1.2,1.3-1.8,1.9
		c-1.1,1.3-2.1,2.5-3,3.7l0.4-0.2c-1.4,1.8-2.1,2.4-2.8,3c-0.7,0.7-1.5,1.3-3.2,3c-0.6,0.8-1.5,1.6-2.5,2.4c0.4-0.5-0.1-0.2-0.6,0.1
		c-0.5,0.3-0.9,0.5-0.4-0.1c-1.8,1.6-2.3,2-2.5,2.3c-0.3,0.3-0.4,0.5-1.5,1.6c-0.3,0.1-0.5,0.1-0.8,0.1c-0.4,0.4-0.6,0.7-1,0.9
		c-0.4,0.3-0.8,0.6-1.8,1c1.1-0.8-1.7,0.4,0.1-0.8c-2.4,0.9-4.1,1.7-5.6,2.3c-0.2,0.1-0.3,0.1-0.5,0.2c-0.2,0.1-0.4,0.1-0.5,0.2
		c-0.3,0.1-0.7,0.2-0.9,0.3c-0.6,0.1-1.2,0.2-1.8,0.1c-0.5,0.3-0.5,0.4-0.2,0.4c0.3,0,0.9-0.1,1.5-0.2c0.8-0.2,1.6-0.4,1.9-0.5
		c1.1-0.1-1.7,1.1-3.4,1.3c-0.8,0.1-1.5,0.1-2.6-0.1c-0.5-0.1-1.1-0.1-1.8-0.1c-0.4,0-0.8,0-1.2,0h-1.2c0.3,0,0.3,0,0.7-0.1
		c-0.8-0.1-1.5,0-2.3,0.1c-0.8,0-1.7,0-2.6-0.2c-0.5,0.2-1.1,0.2-1.7,0.1c-0.5,0-0.9-0.1-1.1,0.2c0.6,0,1.2,0.1,1.9,0.1
		c0.6,0,1.3,0,1.9,0c-1.1,0.1-2.1,0.2-3.4,0.2c-1.2,0-2.7,0-4.4-0.5c0.3-0.1,1.4,0,2.1,0c-1-0.3-2-0.2-3-0.6c0.2-0.2,1.3,0,2.7,0.2
		c1.4,0.2,3,0.4,4.2,0.2c-0.3-0.1-0.7-0.1-1.1-0.1c-0.4,0-0.9,0-1.3,0c-0.8,0-1.3-0.1-0.7-0.4c-0.9,0.3-1.9,0.1-3-0.1
		c-1.1-0.3-2.3-0.7-3.7-0.8l0.3-0.3c-0.2,0-0.6-0.1-0.9-0.2c-0.4-0.1-0.8-0.2-1.1-0.3c0.5,0,1,0.1,1.5,0.1c-1.1-0.2-2-0.7-2.9-1.2
		c-0.9-0.6-1.6-1.1-2.5-1.6c0.4,0.3,0.7,0.5,1,0.7c0.2,0.2,0.4,0.3,0.6,0.4c0.2,0.2,0.3,0.3,0.2,0.3c-0.1,0.1-0.6,0.1,0.2,0.6
		c-1.2-0.5-2-1-2.4-1.5c-0.2-0.2-0.4-0.4-0.5-0.6c-0.2-0.2-0.3-0.4-0.4-0.6c-0.1-0.2-0.2-0.4-0.3-0.6c-0.1-0.2-0.2-0.5-0.4-0.7
		c-0.3-0.5-0.7-1.2-1.3-2.2c0.1,0.1,0.1,0.2,0.2,0.4c0.1,0.2,0.2,0.5,0.3,0.7c0.2,0.4,0.2,0.7-0.2,0.2c-0.3-0.5-0.5-1-0.6-1.5
		c-0.1-0.3-0.2-0.5-0.2-0.8c-0.1-0.2-0.1-0.4-0.1-0.6c-0.2-0.9-0.3-1.2-0.3-1.4c-0.1-0.1-0.1,0-0.1,0.2c-0.1,0.4,0,1.1-0.3,0.4
		c0.1-0.7,0-1.1-0.1-1.6c-0.1-0.2-0.1-0.5-0.2-0.8c0-0.1,0-0.3-0.1-0.5c0-0.2,0-0.4,0-0.6l0.4,0.1c0.3-1,0.5-1.5,0.6-1.9
		c0.1-0.3,0.1-0.5,0.1-0.6c0-0.1-0.1-0.3,0.1-0.6c0.1-0.3,0.4-0.8,1.1-1.4c-0.3,0.5-0.5,1-0.6,1.6c0.3-0.6,0.7-1.1,1.1-1.6v0.6
		c0.6-0.9,1.1-1.3,1.7-1.7c0.6-0.4,1.2-0.7,2.2-0.9c-0.3,0-0.3-0.2,0-0.5c0.3-0.2,0.9-0.5,1.8-0.5c0.6,0.1,0.4,0.2,0.4,0.3
		c0,0,0,0.1,0.2,0.1c0.1,0,0.2,0,0.4,0.1c0.1,0,0.2,0,0.3,0.1c0.1,0,0.2,0.1,0.4,0.1c-0.1,0-0.3,0-0.4,0c-0.2,0-0.3,0-0.5,0
		c-0.3,0-0.7,0-1.2-0.2c-0.1,0.1-0.5,0.3-0.6,0.4c0.6,0,1.3,0,1.9,0.1c0.5,0.1,0.9,0.3,1.2,0.4c-0.2-0.1-0.3-0.2-0.4-0.3
		c0.5,0.1,1,0.3,1.4,0.7c0.5,0.4,0.9,0.7,1.1,1.1c0,0.2,0,0.3-0.1,0.2c-0.1-0.1-0.2-0.2-0.3-0.3c0.1,0.2,0.3,0.4,0.4,0.6
		c0.1,0.2,0.2,0.5,0.1,0.9c-0.1-0.2-0.3-0.2-0.4-0.4c-0.1-0.1-0.2-0.3-0.3-0.6c0.1,0.3,0.2,0.5,0.1,0.8c0,0.4-0.2,0.9-0.4,1.3
		c-0.1,0-0.2,0.1-0.3,0.2c-0.1,0-0.1,0.1-0.2,0.2l0,0l-0.1,0.1c-0.1,0.1-0.1,0.1-0.2,0.2c-0.1,0.1-0.3,0.3-0.4,0.4
		c-0.1,0.1-0.3,0.2-0.3,0.3c-0.2,0.1-0.3,0.1-0.1-0.1c-0.4,0.3-0.9,0.7-1.4,1c-0.3,0.2-0.6,0.4-0.8,0.6c-0.2,0.2-0.5,0.4-0.8,0.6
		c-0.9,0.8-1.8,1.6-2.6,2.2c0.2,0.1,0.4,0.2,0.5,0.3c0.1,0,0.1,0.1,0.2,0.1c0,0,0,0,0.1,0l0.1,0.1l0.2,0.1c0.6,0.2,1.2,0.4,1.8,0.6
		c0.6,0.2,1.1,0.4,1.7,0.6c0.3,0.1,0.6,0.2,0.9,0.3c0.3,0.1,0.6,0.2,0.9,0.3c0.2,0,0.4,0,0.7,0c0.3,0,0.7,0.1,1.2,0.1
		c0.6,0.1,1.2,0.1,1.8,0.2c0.2,0,0.5,0,0.7,0.1c0.2,0,0.4,0,0.6,0c0.7,0.1,1.5,0.1,2.3,0.1c0.4,0,0.8,0,1.1,0
		c0.5-0.1,0.9-0.1,1.4-0.2c0.2,0,0.5-0.1,0.7-0.2c0.1,0,0.2-0.1,0.4-0.1c0.1,0,0.2-0.1,0.3-0.1c0.2-0.1,0.5-0.2,0.7-0.3
		c0.2-0.1,0.5-0.3,0.7-0.4c0.4-0.1,0.8-0.2,1.2-0.4c0.4-0.1,0.8-0.4,1.1-0.6c0.3-0.3,0.5-0.5,0.6-0.6c0.1-0.1,0.1-0.2,0.1-0.2
		c-0.1,0-0.4,0.2-0.7,0.3c-0.3,0.1-0.5,0.2-0.4,0c0,0,0.1-0.1,0.1-0.2c0.1-0.1,0.2-0.2,0.3-0.4c0.1-0.1,0.3-0.3,0.4-0.5
		c0.1-0.2,0.3-0.4,0.5-0.7c0.3-0.4,0.5-0.7,0.6-0.9c0.1-0.1,0.2-0.2,0.2-0.3c0-0.1,0.1-0.2,0.1-0.2c0.2-0.3,0.3-0.3,0.4-0.3
		c0.2,0,0.2,0.4,0.6-0.2c0.3-0.9,0.5-2.2,0.7-3.5c0.2-1.4,0.2-2.9,0.4-4.5c0,0.3,0.1,0.5,0.1,0.8v0.7c0,0.2,0,0.5,0,0.7
		c0,0.2,0,0.5-0.1,0.8c0.2-0.8,0.3-1.7,0.4-2.5c0.3,1.5,0.3,2.8,0.2,3.5c0,0.7,0,0.6,0.4-0.6c-0.1-0.1-0.2-0.3-0.3-0.6
		c0-0.3,0-0.7-0.1-1.2c0-0.9-0.1-2.2-0.3-3.4c-0.2-1.2-0.6-2.4-0.9-3.3c-0.2-0.4-0.4-0.8-0.6-1c-0.2-0.2-0.4-0.4-0.5-0.3
		c-0.2-0.6-0.4-1-0.6-1.6c0.2,0.4,0.3,0.5,0.5,0.9c-0.6-1.6-1.1-2-1.7-2.4c-0.3-0.2-0.7-0.4-1.1-0.8c-0.2-0.2-0.5-0.4-0.7-0.6
		c-0.3-0.2-0.6-0.6-1-0.9c-0.9-0.9-1.6-1.4-1.1-1.2c-0.9-0.5-1.7-0.9-2.7-1.2c-0.4-0.2-0.6-0.3-0.5-0.3c0,0,0.1,0,0.3,0
		c-1.3-0.5-2.7-0.9-4.1-1.1l0.1,0c-0.7,0-2.2,0.1-3,0.2c-0.6-0.1-0.4-0.1-0.2-0.1c0.3,0,0.6,0,0.5-0.1c-0.9,0-1.7,0.1-2.6,0.3
		c-0.5-0.1-0.3-0.2,0.4-0.4c0.3-0.1,0.7-0.1,1.1-0.1c0.2,0,0.5,0,0.7,0c0.2,0,0.5,0,0.7,0c-0.3-0.1-0.6-0.2-0.8-0.3
		c-0.2-0.1-0.4-0.1-0.7-0.1c-0.4,0-0.8,0-1.2,0.1c-0.2,0-0.5,0.1-0.8,0.1c-0.3,0.1-0.6,0.1-1,0.2c-0.8,0.1-1.7,0.3-3,0.5
		c0.8-0.3,1.6-0.5,2.4-0.7c-0.8-0.1-1.7,0-2.8,0.2c-0.5,0.1-1,0.3-1.6,0.5c-0.3,0.1-0.6,0.2-0.9,0.3c-0.2,0.1-0.3,0.1-0.5,0.2
		c-0.2,0-0.4,0.1-0.5,0.2c0.4-0.1,1.8-0.4,2.7-0.5c1-0.1,1.6,0,0.3,0.5c-0.4,0.1-0.8,0.3-1.3,0.5c-0.2,0.1-0.5,0.2-0.8,0.4
		c-0.3,0.2-0.6,0.4-0.9,0.6c-0.2-0.3-1.5,0.4-3,1.5l-0.2-0.5c-0.2,0.2-0.4,0.3-0.5,0.4c-0.2,0.1-0.3,0.3-0.4,0.4
		c-0.2,0.2-0.3,0.4-0.4,0.6c-0.2,0.3-0.4,0.6-0.7,1.1c-0.4,0.4-0.8,0.7-1,0.9c-0.3,0.3-0.5,0.4-0.7,0.6c-0.2,0.2-0.4,0.3-0.6,0.3
		c-0.1,0-0.2,0.1-0.2,0.1c-0.1,0-0.2,0.1-0.2,0.1c-0.1,0.2-0.2,0.2-0.1,0.3c0,0.1,0.1,0.1,0.2,0.1c0.1,0,0.2,0,0.3,0.1
		c0,0,0,0.1,0,0.2c0,0-0.1,0.1-0.1,0.2c0,0.1-0.1,0.1-0.1,0.2l0,0c-0.2,0.3-0.4,0.6-0.5,0.9l0,0l0,0l0-0.1c-0.1-0.1-0.1-0.1-0.1-0.2
		c-0.1-0.1-0.2-0.3-0.4-0.4c-0.2-0.2-0.3-0.4-0.7-0.7c-1.2-1.8,0.5,0.1,0.1-0.6l-0.4-0.3l-0.4-0.3c-0.3-0.2-0.5-0.4-0.8-0.6
		c-0.3-0.3-0.2-0.3-0.1-0.3c-0.6-0.5-0.7-0.4-0.9-0.4c-0.1,0-0.2,0-0.4-0.1c-0.2-0.1-0.5-0.3-1-0.6c-0.4,0-1.3-0.8-2.7-1.6
		c-0.7-0.4-1.5-0.8-2.3-1c-0.8-0.3-1.7-0.4-2.4-0.4c-0.7-0.3,0.4-0.3,0.2-0.5c-1-0.1-1.8,0-2.4,0c-0.6,0-1,0.1-1.4,0.1
		c-0.4,0.1-0.8,0.1-1.2,0.3c-0.5,0.1-1,0.3-1.8,0.6c-0.9,0.1-1.9,0.2-2.8,0.5c0.5-0.1,0.8-0.1,0.8,0c0,0.1-0.1,0.3-0.4,0.5
		c-0.6,0.4-1.6,1-2.6,1.7c0.1,0,0.2,0,0.3,0c-0.2,0.1-0.4,0.2-0.6,0.3c0.1-0.1,0.2-0.2,0.3-0.3c-0.1,0-0.3,0.1-0.4,0.1
		c-0.1,0.1-0.2,0.3-0.3,0.4c0,0,0,0,0,0c-0.5,0.3-1,0.7-1.5,1c-0.1-0.1,0.2-0.5,0.6-0.9c0.4-0.2,0.9-0.3,1.3-0.4
		c0.6-0.7,1.3-1.3,1-1.5c-0.2,0.2-0.6,0.4-1,0.7c0.2-0.2,0.3-0.3,0.2-0.3c-0.1,0-0.2,0.1-0.3,0.2c-0.1,0.1-0.3,0.3-0.6,0.5
		c-0.3,0-0.7,0-1,0l-0.1,0.3c-1.4,0.9-2.8,1.9-3.9,3.1c-0.9,1.6-1.5,3.2-2,5c-0.4,1.8-0.8,3.9-0.9,6.5c-0.3-1.3-0.6-0.3-1-0.5
		c0.3-0.7,0.4-1.8,0.6-3c0.2-1.2,0.5-2.6,1.1-3.8c-0.3,0.6-0.5,0.8-0.5,0.8c-0.1,0-0.1-0.2-0.1-0.4c-0.5,1.7-0.8,3.4-0.9,5.1
		c-0.4-0.2-0.5,1-0.7,2.4c0.2-0.2,0.3-0.1,0.4,0.2c0,0.2,0.1,0.4,0.1,0.7c0,0.3,0,0.7,0,1c0,0.9,0.1,1.8,0.2,2.7
		c0.1,0.9,0.2,1.6,0.4,2.2c-0.1,0.2-0.2,0.3-0.3-0.1c-0.2-0.5-0.4-1.3-0.5-3.1c0,0.4,0,0.7,0,1c0,0.3,0,0.6,0.1,0.9
		c0.1,0.5,0.2,0.9,0.3,1.3c0.1,0.4,0.3,0.7,0.4,0.9l0.1,0.2c0,0.1,0,0,0.1,0l0.1,0c0.1,0,0.3-0.1,0.4-0.1c0.7-0.7,1.3-1.1,2.2-1.6
		c0,0,0,0,0,0c0.1,0,0.1-0.1,0.2-0.1c0.3-0.2,0.6-0.4,0.9-0.6c0.3-0.2,0.6-0.3,0.9-0.4c0.1,0,0.2-0.1,0.2-0.1c0.1,0,0.1-0.1,0.1-0.1
		c0.1,0,0.2-0.1,0.3-0.1c0.2-0.1,0.3-0.1,0.4-0.1c0.2,0,0.3,0,0.1,0.1c0.8-0.3,1.6-0.6,2.6-0.9c0.3,0,0.6-0.1,0.9-0.2
		c0.3-0.1,0.6-0.1,0.9-0.2c0.3,0,0.6-0.1,0.9-0.1c0.3,0,0.6,0,0.9,0c1.2,0,2.3,0,3.1,0.1c0.2,0,0.4,0.1,0.6,0.1c0.2,0,0.3,0,0.4,0.1
		c0.3,0,0.4,0.1,0.5,0c0,0-0.2,0.2-0.4,0.3c-0.2,0.1-0.4,0.2-0.6,0.3c1,0,2.1,0.4,3.1,0.9c0.4,0.2,0.8,0.5,1.2,0.8
		c0.4,0.5,0.9,1.1,1.3,1.7c-0.1,0.2-0.2,0.4-0.3,0.5c-0.1,0.2-0.3,0.3-0.6,0.2c-0.3-0.1-0.6-0.4-1.1-0.9c0.2,0.4,0.5,0.8,0.9,1.3
		c0.4,0.5,0.8,1.1,1.4,1.9c-0.3-0.6-0.2-1.7,0.3-1c0.4,1.1,0.5,1.5,0.8,2c0.2,0.4,0.4,0.9,0.9,2.2c-0.2-0.7,0.9-0.2,1.7,1
		c-0.2-0.1-0.7,0.5-1,0.1l2.5,2.7c-0.5-0.4-0.5,0.4-0.3,1.2c0.1,0,0.5,0.6,0.9,1.4c0.5,0.9,1.1,1.9,1.4,2.3l-0.7-1.5
		c1,1.9,1.9,2.6,2.7,3.3c0.8,0.7,1.7,1.4,2.8,3.1c-0.2-0.1-0.6-0.3-0.8-0.1c-0.2,0.2-0.2,0.6,0.4,1.5c0.5,0.3,1.5,0.8,2.8,1.6
		c0.1,0.1,0.1,0.1,0.2,0.2c1,1.2,2,2.5,3.1,3.6c-0.2-0.1-0.4-0.3-0.7-0.4c-0.8-0.5-1.6-1-2.3-1.6c-0.7-0.6-1.4-1.1-1.9-1.5
		c0.9,1.4,0.1,0.5,1.6,2.4c0.2,0.4-0.1,0.2-0.5-0.2c-0.4-0.4-0.9-0.9-1.1-1.2c0.6,0.7,1.1,1.5,1.8,2.2c0.6,0.7,1.2,1.4,1.9,2.2
		c0.1-0.3,0.9,0.5,1.8,1.1c0.9,0.7,1.7,1.4,1.8,1.1c-1.6-1.3-3.1-2.7-4.6-4.1c0.1-0.3,0.9,0.2,2.1,1c0.6,0.4,1.2,0.9,2,1.5
		c0.7,0.6,1.4,1.2,2.1,1.9c0.6,0.8-1.1,0.1-1.2,0.3c0.3,0.1,1,0.7,1.7,1.3c0.8,0.6,1.4,1.1,1.6,1.3l-1.5-0.9
		c0.8,0.8,1.6,1.3,2.5,1.8c0.4,0.2,0.9,0.5,1.3,0.8c0.5,0.3,0.9,0.7,1.4,1.1c0.2,0.2,0.4,0.4,0.6,0.6c0.2,0.2,0.5,0.4,0.7,0.7
		c0.5,0.4,0.8,0.8,1,0.7c-0.6-0.8-0.6-1.7-0.2-2.2c0.9,0.6,1.7,1.1,2.6,1.6l-0.2,0.1l0.5,0.3l0.1-0.2c0.9,0.6,1.9,1,2.8,1.5
		c0,0.2-0.4,0.2-0.9,0.2c-0.6,0-1.3-0.1-0.8,0.4c0.1-0.1,0.9,0.2,1.3,0.3c0.8,0.5-0.6,0.2,1.4,1c0.4-0.2,2.1,0.7,2.2,0.7
		c-0.1,0-0.4-0.2-1.1-0.7c1.9,0.7,2,0.9,4.2,1.8c-0.3-0.3,0.3-0.4,1.2-0.3c0.2,0,0.5,0,0.7,0.1h0.3c0.8,0.3,1.6,0.5,2.5,0.8
		c0,0,0.1,0.1,0.1,0.1c0.5,0.2,1,0.3,1.4,0.4c0.5,0.1,0.9,0.2,1.3,0.3c0.4,0.1,0.8,0.2,1.2,0.3c0.4,0.1,0.8,0.2,1.1,0.3
		c0.8,0.2,1.5,0.4,2.3,0.5c0.8,0.2,1.7,0.3,2.6,0.4c0.3,0.2,2.2,0.6,1.3,0.7c0.6,0,1.1-0.1,2.3,0c1.1,0.3,0.5,0.3-0.3,0.3
		c-0.8-0.1-1.5-0.1-0.7,0.2c0.2-0.3,3.1-0.1,4.8-0.2c-0.3-0.2-1.2-0.3-2.4-0.4c-1.1,0-2.4,0-3.3-0.1c0-0.2,0.4-0.4,1-0.5
		c4,0.5,8.1,0.7,12.4,0.7c1.2,0.1,3.2,0.1,5.4,0.1c2.9,0,6.2-0.2,8.5-0.3c0.6-0.2,1.4-0.4,1.6-0.5c2.3-0.3,4.5-0.7,6.8-1.2l2-0.4
		l-0.6,0.1c2.3-0.6,4.6-1.4,7.1-2.4v0c0,0,0,0.1,0.1,0.1l1.7-0.9c0.1,0,0.2-0.1,0.3-0.1h0c-0.1,0.1-0.6,0.5,0,0.3
		c0-0.1,0.1-0.2,0.4-0.4c0.1-0.1,0.2-0.1,0.2-0.2h0c1-0.5,2-0.9,3.1-1.5c0,0,0.1,0,0.1,0c0,0,0.1-0.1,0.1-0.1
		c0.8-0.4,1.6-0.9,2.5-1.3c0.1,0,0.2-0.1,0.3-0.1c0.1-0.1,0.3-0.2,0.5-0.3c3.2-1.8,6.7-3.8,10.6-6.3c2.7-1.7,6.4-4.4,11-9.8
		c4.6-5.3,8.7-13.3,10.5-18.3c2-5.4,2.7-14.4,2.7-14.4s-4.5-0.2-6.3-2.2C195.1,173.7,194.8,171.9,194.8,170.4z M176.2,189.1
		c-3.7,0-6.6-3-6.6-6.6s3-6.6,6.6-6.6s6.6,3,6.6,6.6S179.9,189.1,176.2,189.1z"></path>
	<path fill="#AC7032" d="M101.2,255.2c0,0,0.1,0.1,0.1,0.1C101.3,255.2,101.3,255.2,101.2,255.2
		C101.3,255.2,101.3,255.2,101.2,255.2z"></path>
	<path fill="#AC7032" d="M158,0H73.4L0,46.2v145.3l22.7,14.3c0.2-1.3,0.4-2.8,0.7-4.3L4,189.2V48.4L74.5,4h82.3l70.5,44.4v140.9
		l-12.6,7.9c0.7,1.1,1.4,2.2,2.1,3.4l14.5-9.1V46.2L158,0z"></path>
	<path fill="#AC7032" d="M220.7,53L158.6,14H72.8L10.7,53v131.5l14.5,9.1c0.8-2.5,1.7-5,3-7.6l-9.5-6V57.5L75.1,22h81.2l56.4,35.5
		v122.7l-8.4,5.3c2.1,1.7,4.1,3.6,5.9,5.7l10.5-6.6V53z"></path>
	<path fill="#AC7032" d="M55.1,128.8c1.9-9.4,5.6-17.9,12.5-24.7c6.2-6.1,13.6-9.6,21.7-12.2c-1.6,0.8-2.8,1.4-3.9,2.1
		c-5.5,4-11.5,7.5-16.2,12.3c-4.9,4.9-7.3,10.9-7.1,16.9c-0.1,5.3,2.1,10.8,6.8,15.4c0.1,0.1,0.1,0.1,0.2,0.2c0.3,0.3,0.7,0.7,1,1
		c3.8,3.4,8.4,6.2,13.1,8.1c10,4,20.2,5.2,30.5,4.8c10.3,0.4,20.5-0.8,30.4-4.8c4.7-1.9,9.3-4.7,13.1-8.1c10.3-9.3,10.8-23.6,1-33.4
		c-4.8-4.7-10.7-8.3-16.2-12.3c-1.3-0.9-2.8-1.5-5-2.7c0,0,0,0,0,0c8.7,2.6,16.9,6.2,23.5,12.7c6.9,6.8,10.6,15.4,12.5,24.7
		c2.9-1.2,5.4-2.2,8-3.3c-0.8-15.7-23.1-33.6-42.7-34.5c9.2-2.3,15.7-6.7,17.1-16c0.5-3.3,0-7.3-1.6-10.1c-2.5-4.3-5.9-8.3-9.8-11.4
		c-8.5-6.8-18-14-27.5-20.9c1.3,2.5,2.4,6,3.9,7.5c5,5,10.2,9.7,15.4,14.5c2.7,2.5,5.7,4.7,7.9,7.6c4.9,6.4,3.5,14.8-3.3,19.3
		c-6.1,4.1-12.7,3.5-20.3,3.8c-4.2,0.2-10.4,0.5-16.3,0.7c-0.4,0-0.8,0-1.1,0c-5.7,0.4-11.1-1.2-16.1-4.5
		c-6.7-4.5-8.2-12.9-3.3-19.3c2.2-2.9,5.3-5.1,7.9-7.6c5.2-4.8,10.4-9.5,15.4-14.5c1.5-1.5,2.6-5,3.9-7.5
		c-9.5,6.9-19,14.1-27.5,20.9c-3.9,3.1-7.3,7.1-9.8,11.4c-1.6,2.8-2.1,6.8-1.6,10.1c1.4,9.3,7.9,13.7,17.2,16
		c-19.4,1.3-41.3,19-42.1,34.5C49.7,126.6,52.2,127.6,55.1,128.8z M112.2,92.8c12.3,1.6,21.8,4.4,30.5,15.2c1.5,1.9,2.9,4,3.9,6.2
		c3.4,7.4,1.8,13.7-4.9,18.3c-3,2-6.4,3.9-9.9,4.8c-4.3,1.1-8.7,1.9-13.1,2.2v-0.1c-1.8,0.2-3.7,0.2-5.5,0.2
		c-6.1-0.1-12.1-1.1-18.1-3.1c-3.6-1.2-7.2-3.5-10.1-6c-6.7-5.8-5.6-12.8,2.1-17.2c5.1-2.8,10.5-2.8,15.9-1.7
		c8.6,1.8,17.1,4.2,25,9.8c-7.1-12.5-22.8-20.4-37.4-18.9C96.7,98.3,104.7,95.1,112.2,92.8z"></path>
	<path fill="#AC7032" d="M176,95.1c4.3-0.9,5.5-4.9,3.1-8.6c-4.6-7-9.1-8.5-16.6-5c-4.7,2.2-9,5.2-14.5,8.4
		C157.6,95,166.6,97,176,95.1z M163,85c2.1-0.6,6.2-0.7,8.3,0.4c2.6,1.4,2.2,5.2-0.6,6c-6,1.9-12,2.1-18.7-2
		C156.7,87.2,159.1,86,163,85z"></path>
	<path fill="#AC7032" d="M80.1,89.9c-5.5-3.2-9.8-6.2-14.5-8.4c-7.5-3.6-12-2-16.6,5c-2.4,3.7-1.2,7.8,3.1,8.6
		C61.6,97,70.5,95,80.1,89.9z M56.8,85.3c2.1-1.1,6.2-0.9,8.3-0.4c3.9,1,6.3,2.3,11,4.4c-6.7,4-12.7,3.9-18.7,2
		C54.6,90.5,54.2,86.7,56.8,85.3z"></path>
</g>
</svg></g>
        </g><g id="shape_HkTfiiDqmW" class="brand_name"  ref="shape_HkTfiiDqmW" key="shape_HkTfiiDqmW" transform="translate(307.00003051758,108.7909961853) rotate(0,194,231.209) scale(1,1)" style="cursor:move;display:inline;opacity:1;" filter="">
            <g style="display:inline"><svg xmlns="http://www.w3.org/2000/svg" version="1.1" xmlns:xlink="http://www.w3.org/1999/xlink" width="315" height="462.418" viewBox="0 0 315 462.418" preserveAspectRatio="none" data-parent="shape_HkTfiiDqmW"><rect fill="rgba(0,0,0,0)" width="63" height="63" x="63" y="199.709"></rect><g data-width="63" transform="translate(63, 0)"><path d="M8.44-28.79L8.44-28.79Q7.56-27.97 4.72-27.03Q1.89-26.08 0.69-26.21L0.69-26.21Q1.01-26.33 5.64-30.15Q10.27-33.96 12.29-35.97L12.29-35.97Q14.24-37.30 15.94-39.82Q17.64-42.34 17.70-44.73L17.70-44.73Q17.14-44.98 15.56-46.43Q13.99-47.88 14.55-47.88L14.55-47.88Q19.09-48.64 22.49-48.64L22.49-48.64Q29.11-48.64 29.55-45.49L29.55-45.49Q29.93-45.05 29.93-44.54L29.93-44.54Q29.93-43.85 28.73-42.78L28.73-42.78Q27.41-41.58 27.28-40.70L27.28-40.70Q28.29-40.95 32.19-41.33L32.19-41.33Q35.59-41.64 36.85-41.77L36.85-41.77Q37.36-42.08 37.58-42.43Q37.80-42.78 38.05-42.93Q38.30-43.09 39.38-43.22L39.38-43.22Q40.01-42.71 41.30-42.24Q42.59-41.77 42.78-41.71L42.78-41.71Q45.42-40.70 46.75-39.94Q48.07-39.19 48.13-38.12L48.13-38.12Q46.87-37.36 44.48-35.72L44.48-35.72Q40.32-33.08 40.32-33.08L40.32-33.08Q39.82-32.82 39.09-32.57Q38.37-32.32 37.99-31.91Q37.61-31.50 37.48-30.68L37.48-30.68Q38.30-30.37 41.45-30.37L41.45-30.37Q43.97-30.37 44.92-30.62L44.92-30.62Q46.05-31.06 46.62-31.31L46.62-31.31Q48.26-32.13 50.02-32.32L50.02-32.32Q50.59-31.94 51.79-31.37L51.79-31.37Q53.49-30.43 54.34-29.86Q55.19-29.30 55.38-28.54L55.38-28.54Q53.99-26.46 53.49-21.61Q52.98-16.76 52.86-9.39L52.86-9.39Q52.60-8.57 52.10-6.49L52.10-6.49Q51.66-4.60 51.19-3.84Q50.72-3.09 49.39-2.77Q48.07-2.46 45.05-2.46L45.05-2.46Q44.86-2.71 44.60-3.09Q44.35-3.46 44.07-3.65Q43.79-3.84 43.16-3.97L43.16-3.97Q41.90-4.22 39.56-4.22L39.56-4.22Q36.23-4.22 28.54-3.46L28.54-3.46Q21.86-2.83 19.66-2.83L19.66-2.83Q19.59-2.39 19.53-1.86Q19.47-1.32 19.12-1.20Q18.77-1.07 17.77-1.07L17.77-1.07Q15.75-1.32 14.65-1.61Q13.54-1.89 12.69-2.80Q11.84-3.72 11.91-5.61L11.91-5.61Q11.53-6.24 11.40-8.00Q11.28-9.77 11.28-12.73L11.28-12.73L11.28-18.14Q11.28-22.81 10.90-24.00L10.90-24.00Q10.77-24.51 10.52-25.74Q10.27-26.96 9.80-27.75Q9.32-28.54 8.44-28.79L8.44-28.79ZM20.73-42.40L20.73-42.40Q20.54-42.21 20.41-41.71L20.41-41.71Q21.29-41.83 21.86-41.83L21.86-41.83Q21.92-41.96 22.08-42.21Q22.24-42.46 22.30-43.03L22.30-43.03Q21.92-43.22 21.86-43.28L21.86-43.28Q21.67-43.22 21.61-43.19Q21.55-43.16 21.48-43.03L21.48-43.03Q21.11-42.97 21.01-42.93Q20.92-42.90 20.73-42.40L20.73-42.40ZM23.56-36.54L23.56-36.54Q23.88-36.29 21.64-34.84Q19.40-33.39 16.66-31.94Q13.92-30.49 13.17-30.43L13.17-30.43Q13.67-30.05 14.52-29.26Q15.37-28.48 16.29-28.04Q17.20-27.59 18.40-27.59L18.40-27.59Q18.77-27.41 19.59-27.41L19.59-27.41Q21.23-27.41 24.03-28.07Q26.84-28.73 28.60-29.30L28.60-29.30Q30.87-31.56 32.22-33.26Q33.58-34.97 34.34-37.04L34.34-37.04Q31.44-36.41 28.35-36.41L28.35-36.41L25.96-36.48Q25.20-36.54 23.56-36.54L23.56-36.54ZM11.40-29.36L11.40-29.36Q11.28-29.42 11.18-29.45Q11.09-29.48 10.90-29.67L10.90-29.67Q11.03-29.48 11.12-29.45Q11.21-29.42 11.40-29.36L11.40-29.36ZM50.34-26.02L50.34-26.02Q50.15-26.08 49.96-26.14L49.96-26.14Q50.02-26.08 50.34-26.02L50.34-26.02ZM36.23-25.58L36.23-25.58Q36.10-24.19 36.10-22.68L36.10-22.68L35.91-19.78Q37.61-19.72 40.63-20.03L40.63-20.03Q41.14-20.10 43.16-20.22Q45.17-20.35 46.56-20.22L46.56-20.22L46.56-21.86Q46.24-22.49 46.27-24.13Q46.30-25.77 46.30-26.02L46.30-26.02L36.23-25.58ZM20.35-25.39L20.35-25.39Q20.60-25.39 20.79-25.45Q20.98-25.52 21.17-25.77L21.17-25.77L20.41-25.77L19.84-25.39L20.35-25.39ZM28.85-18.65L28.85-18.65Q29.11-18.90 29.11-19.97L29.11-19.97Q29.11-20.60 28.98-22.11L28.98-22.11Q28.98-22.49 28.89-23.15Q28.79-23.81 28.85-24.13L28.85-24.13Q28.85-24.19 28.35-24.19L28.35-24.19Q26.46-24.19 19.09-23.12L19.09-23.12Q18.84-22.68 18.84-21.73L18.84-21.73Q18.84-21.04 18.96-19.66L18.96-19.66Q19.09-18.40 19.09-18.02L19.09-18.02Q19.40-17.96 20.48-17.96L20.48-17.96Q22.55-17.96 25.55-18.21Q28.54-18.46 28.85-18.65L28.85-18.65ZM35.41-15.25L35.41-15.25Q35.34-15.12 35.28-13.99Q35.22-12.85 35.22-12.29L35.22-12.29L35.03-9.01Q45.42-9.01 45.05-10.27L45.05-10.27Q45.49-10.77 45.64-11.97Q45.80-13.17 45.83-14.21Q45.86-15.25 45.86-15.62L45.86-15.62L40.57-15.44L35.41-15.25ZM27.85-7.69L27.85-7.69Q28.16-8.38 28.29-10.99Q28.41-13.61 28.29-14.43L28.29-14.43Q27.59-14.11 23.50-13.99L23.50-13.99Q19.72-13.86 19.40-13.61L19.40-13.61L19.40-6.93Q20.10-7.25 21.55-7.31Q23.00-7.37 24.44-7.37L24.44-7.37Q25.64-7.37 26.65-7.43Q27.66-7.50 27.85-7.69L27.85-7.69ZM54.18-0.19L54.18-0.19Q55.69 0.13 57.74 2.65Q59.79 5.17 60.92 7.81L60.92 7.81Q60.98 7.75 59.85 8.69L59.85 8.69L58.78 9.58Q57.77 9.58 56.76 9.36Q55.76 9.13 54.87 8.88L54.87 8.88Q52.73 8.25 51.53 8.25L51.53 8.25Q48.83 8.25 33.96 9.07L33.96 9.07Q15.31 10.08 11.21 10.08L11.21 10.08Q10.33 10.08 8.88 8.63Q7.43 7.18 6.27 5.32Q5.10 3.46 4.91 2.46L4.91 2.46Q8.82 3.15 14.68 3.15L14.68 3.15Q19.28 3.15 27.03 2.71L27.03 2.71Q34.52 2.33 38.81 2.27L38.81 2.27Q41.14 1.83 44.79 1.64L44.79 1.64Q48.70 1.39 50.78 1.07Q52.86 0.76 54.18-0.19L54.18-0.19Z" transform="translate(0 254.709) " fill="rgb(172, 112, 50)" stroke="rgb(172, 112, 50)" stroke-width="0.105" data-glyph-w="63" data-glyph-h="82.467" data-glyph-ascender="65.709" data-glyph-descender="-16.758"></path></g></svg></g>
        </g>
  </svg>